<svg width="16" height="16" xmlns="http://www.w3.org/2000/svg" xmlns:xlink="http://www.w3.org/1999/xlink"><defs><circle id="a" cx="8" cy="8" r="8"/></defs><g fill="none" fill-rule="evenodd"><mask id="b" fill="#fff"><use xlink:href="#a"/></mask><use fill="#F0F0F0" fill-rule="nonzero" xlink:href="#a"/><g mask="url(#b)"><path fill="#006C35" fill-rule="nonzero" d="M-4 0h24v16H-4z"/><path d="M6.345 4.779c-.012 0-.031.006-.057.022-.059.04-.174.16-.178.299-.004.078-.018.078.033.128.037.053.074.048.149.009a.158.158 0 0 0 .072-.105c.018-.09-.094.042-.108-.057-.025-.092.046-.13.114-.22.002-.041.002-.075-.025-.076zm1.09.006c-.021.003-.047.03-.082.094-.026.067-.135.17-.056.38.065.133.091.35.062.592-.045.069-.055.092-.114.16-.083.09-.172.067-.241.034-.064-.043-.115-.066-.144-.203.005-.22.018-.578-.022-.654-.06-.118-.156-.076-.198-.04-.2.183-.299.491-.36.737-.055.179-.114.127-.155.055-.101-.095-.108-.835-.23-.713-.195.558.112 1.17.325 1.11.154.063.251-.229.314-.55.043-.089.076-.1.098-.053-.006.426.03.52.14.65a.353.353 0 0 0 .462.008l.19-.19c.042-.045.098-.047.158-.008.058.053.05.144.175.207.105.042.328.01.38-.08.07-.12.087-.16.119-.206.05-.066.135-.037.135-.016-.008.037-.058.073-.024.14.06.044.073.016.108.006.124-.06.217-.328.217-.328.005-.1-.052-.093-.088-.072-.048.029-.05.039-.098.068-.06.009-.178.049-.236-.041-.06-.108-.06-.259-.105-.368 0-.008-.08-.172-.006-.182.037.007.116.027.129-.04.039-.064-.084-.247-.167-.34-.072-.08-.172-.09-.27-.008-.067.062-.057.132-.07.198a.31.31 0 0 0 .063.27c.068.133.19.304.15.546 0 0-.071.115-.197.1-.052-.012-.138-.034-.183-.37-.034-.253.009-.608-.1-.774-.023-.063-.044-.124-.08-.12zm-.345.027c-.033.003-.069.04-.098.114a1.852 1.852 0 0 0-.051.347c-.02.086.09.123.141.012.076-.205.076-.292.081-.378-.012-.066-.04-.098-.073-.095zm1.274.023c-.033.003-.06.022-.07.072a.76.76 0 0 0 .013.276c.015.064.109.172.155.235.22.296.433.594.638.903.032.229.056.453.071.676.033.489.043 1.098.013 1.613.092.003.238-.148.29-.37.033-.307-.012-.934-.015-1.115a10.258 10.258 0 0 0-.012-.26c.238.39.47.803.697 1.257.083-.04.064-.506.016-.571-.182-.392-.433-.778-.513-.926a7.118 7.118 0 0 0-.244-.376 5.69 5.69 0 0 0-.06-.518c-.038-.26.107.03.087-.122-.047-.26-.19-.437-.36-.675-.055-.078-.054-.094-.138.019a.497.497 0 0 0-.035.299 1.586 1.586 0 0 0-.089-.118c-.146-.126-.155-.133-.277-.235-.038-.027-.111-.07-.167-.064zm3.776.039c-.016-.003-.034.005-.054.035a.227.227 0 0 0-.078.172c.01.137.034.278.043.415l.01.055a.535.535 0 0 0-.035-.041c-.268-.281.123-.046-.051-.263-.147-.162-.19-.213-.316-.31-.063-.041-.101-.119-.122.014a2.615 2.615 0 0 0-.009.35c0 .054.056.157.105.218.178.219.36.452.544.696.039.496.049.951.088 1.449-.006.212-.071.495-.133.522 0 0-.095.054-.158-.006-.046-.019-.23-.307-.23-.307-.094-.087-.157-.062-.224 0-.185.178-.268.512-.394.743-.032.051-.124.095-.225-.004-.258-.352-.107-.853-.139-.724-.23.258-.128.687-.076.779.076.151.137.248.284.323.134.098.238.037.296-.032.135-.14.137-.497.2-.568.044-.13.156-.108.21-.05a.516.516 0 0 0 .192.166c.126.11.276.13.424.03a.491.491 0 0 0 .226-.276c.064-.17.032-1.06.018-1.556.095.134.189.27.282.409.04.435.06.863.046 1.274-.01.081.285-.244.283-.398v-.371c.143.228.281.46.412.695.081-.043.053-.502.002-.565a10.82 10.82 0 0 0-.448-.67 12.66 12.66 0 0 0-.08-.616c-.026-.137-.052-.342-.091-.504-.01-.064-.043-.266-.033-.285.016-.046.076.001.106-.051.044-.049-.154-.563-.255-.71-.036-.066-.102-.043-.183.064-.075.07-.048.23-.019.384.075.39.141.786.194 1.182l-.334-.49-.015-.077c0-.007-.016-.319-.03-.393-.002-.03-.01-.04.022-.035.033.028.038.03.059.039.034.006.063-.051.043-.104l-.314-.58c-.013-.013-.027-.026-.043-.028zm-9.745.01c-.058-.002-.122.034-.097.104-.015.038.114.166.136.237.02.05-.02.212.022.227.039.017.092-.112.112-.231.011-.065.003-.289-.149-.334a.124.124 0 0 0-.024-.003zm11.101.001c-.013.001-.03.023-.054.075-.06.097-.08.271-.056.425.143.967.25 1.902.271 2.759-.012.081-.016.125-.054.227-.084.108-.177.244-.265.309-.087.065-.274.128-.335.176-.193.112-.194.24-.038.245.27-.031.588-.053.808-.385.059-.093.128-.345.131-.499.02-.904-.011-1.788-.147-2.441-.009-.064-.037-.21-.026-.229.018-.045.106.005.137-.047.046-.047-.228-.398-.324-.548-.02-.038-.03-.069-.048-.067zM10.67 4.9c-.011.002-.027.019-.058.059-.075.246-.102.447-.073.6.194 1.01.392 1.928.36 2.889.092 0 .198-.21.243-.418.025-.287-.016-.461-.024-.63-.007-.169-.19-1.536-.228-1.664-.045-.241.178-.032.154-.172-.077-.177-.27-.434-.33-.588-.022-.041-.025-.08-.044-.076zm-6.88.019c-.025.004-.048.024-.056.056-.005.021.01.056-.01.067-.01.011-.053.004-.05-.055 0-.019-.015-.038-.023-.05-.008-.005-.014-.007-.029-.007-.018 0-.018.006-.028.021-.004.016-.01.031-.01.049-.002.02-.01.028-.026.031-.017 0-.013.002-.027-.007-.008-.009-.018-.013-.018-.028a.164.164 0 0 0-.01-.052c-.006-.01-.018-.015-.031-.018-.072 0-.077.083-.073.114-.005.006-.008.152.09.193.132.063.378.036.368-.176a1.67 1.67 0 0 0-.006-.099c-.013-.031-.038-.043-.062-.039zm1.765.002a.294.294 0 0 0-.12.033c-.087.084-.108.218-.039.301.067.032.134.099.09.136-.19.202-.682.54-.707.601v.007L4.78 6h.001l.001.001h.001l.001.001c.025.017.333.016.367.001l.001-.001h.001v-.001c.106-.039.608-.613.608-.613l-.076-.061c-.028-.024-.025-.048 0-.072.125-.072.085-.232.02-.304a.324.324 0 0 0-.15-.03zm4.616.002c-.013.001-.03.022-.054.074a.843.843 0 0 0-.095.425c.129.89.168 1.669.252 2.559.007.086-.006.211-.063.261-.211.221-.517.494-.849.619-.036.04.09.211.25.211.27-.031.507-.182.726-.58.059-.094.162-.293.165-.447.02-.904-.045-1.607-.18-2.26a.373.373 0 0 1 .007-.158c.018-.02.077 0 .108-.051.046-.047-.123-.437-.219-.587-.019-.038-.03-.068-.048-.066zm-7.15.027c-.038.005-.073.035-.09.075-.006.143-.007.286.01.417.064.231.085.434.116.67.009.317-.183.137-.174-.02.044-.204.032-.524-.007-.606-.031-.081-.067-.101-.143-.088-.06-.003-.215.166-.259.446 0 0-.036.144-.052.272-.021.145-.117.248-.184-.02-.058-.194-.093-.673-.19-.56-.028.373-.06 1.03.257 1.098.384.037.172-.65.311-.774.026-.061.075-.062.08.015v.583c-.004.19.12.246.217.285.1-.008.168-.005.207.093l.048 1.01s.233.066.244-.568c.011-.372-.074-.684-.024-.757.002-.07.093-.074.156-.04.1.071.145.158.301.123.238-.065.38-.18.384-.363a1.581 1.581 0 0 0-.109-.52c.01-.031-.045-.113-.035-.145.043.067.107.062.122 0-.04-.133-.103-.26-.205-.316-.084-.074-.207-.058-.252.096-.02.178.065.389.194.561a.55.55 0 0 1 .05.28c-.07.04-.138.023-.196-.038 0 0-.189-.141-.189-.173.05-.32.011-.358-.017-.447-.02-.123-.078-.162-.125-.246-.047-.05-.111-.05-.142 0-.083.145-.044.456.016.595.044.128.11.208.08.208-.027.073-.08.056-.12-.028a2.08 2.08 0 0 1-.067-.546c-.017-.144-.035-.45-.13-.529-.025-.034-.055-.046-.084-.043zm1.348.002c-.019.003-.04.014-.065.02-.082.025-.158.096-.134.233.097.587.16 1.035.256 1.621.015.069-.043.16-.117.15-.126-.085-.157-.258-.373-.25-.156.001-.334.17-.356.334a.813.813 0 0 0 0 .384c.11.132.241.118.356.088.095-.039.173-.132.206-.11h.001v.001c.02.036-.002.341-.446.577-.273.123-.49.152-.607-.07-.072-.14.005-.67-.173-.548-.527 1.36 1.235 1.549 1.432.056.013-.042.052-.084.08-.074.011.005.022.022.026.052-.04 1.352-1.363 1.444-1.588 1.02-.056-.101-.072-.324-.078-.458-.01-.08-.03-.127-.054-.146-.053-.04-.125.065-.14.247-.023.147-.017.187-.017.328.07 1.068 1.773.61 2.05-.273.136-.456-.004-.8.042-.842h.002l.002-.002h.002a.029.029 0 0 1 .006-.002c.17.182.406.023.458-.04.022-.031.078-.052.117-.01.132.094.363.05.411-.118.028-.163.052-.331.057-.506-.086.027-.155.047-.183.076a.048.048 0 0 0-.013.024l-.022.145a.036.036 0 0 1-.004.011.047.047 0 0 1-.016.015c-.03.017-.083.007-.086-.037-.04-.185-.209-.21-.31.078-.07.056-.195.067-.208-.017.017-.193-.061-.219-.217-.128l-.15-1.13c.065-.002.125.046.184-.029-.064-.2-.2-.607-.277-.645h-.002a.102.102 0 0 0-.016-.016L4.4 4.958a.055.055 0 0 0-.03-.006zm5.259.003c-.067-.002-.142.04-.113.125-.017.046.145.203.171.288.047.132-.036.257.013.275.045.02.108-.135.131-.28.027-.116-.056-.355-.174-.405a.14.14 0 0 0-.028-.003zM5.531 5.1c.03-.003.068.025.086.065.02.043.01.083-.022.091-.032.008-.073-.02-.092-.063-.02-.042-.01-.084.022-.092h.006zm7.6.197c-.061-.002-.128.045-.102.136-.015.05.131.22.155.312.021.066-.032.279.012.298.041.022.099-.147.12-.303.012-.085-.051-.385-.159-.439a.113.113 0 0 0-.026-.004zM8.93 5.4c.006.025.011.05.015.076.013.056.024.11.035.165a2.507 2.507 0 0 0-.106-.14c-.11-.13.003-.085.056-.1zm.968.476c-.024.004-.047.025-.055.057-.005.021.01.056-.009.066-.01.011-.054.005-.052-.054 0-.018-.014-.039-.022-.05-.008-.006-.014-.008-.029-.008-.018.001-.018.006-.028.021-.004.016-.01.031-.01.05-.002.02-.01.027-.025.03-.017 0-.014.002-.028-.007-.008-.009-.018-.012-.018-.028a.164.164 0 0 0-.009-.052c-.007-.01-.019-.013-.032-.017-.072 0-.076.082-.072.113-.005.006-.009.154.09.194.13.063.379.035.368-.177a1.66 1.66 0 0 0-.007-.099c-.013-.031-.038-.043-.062-.039zm-4.42.044a.106.106 0 0 0-.062.02c-.116.062-.161.249-.089.358.068.096.175.061.19.061.113.015.181-.214.181-.214s.004-.064-.132.057c-.057.01-.064-.01-.079-.042a.284.284 0 0 1 .018-.179c.013-.035 0-.058-.027-.06zm6.248.03c-.064-.004-.133.038-.15.126 0 .052.023.081.018.128-.006.027-.034.045-.1.013.01-.01-.044-.085-.044-.085-.051-.031-.12.002-.166.031a.253.253 0 0 0-.015.201c.075.138.33.372.451.374.003-.124.015-.288.021-.39.003-.04.012-.082.05-.092.036-.01.1.038.101-.003-.006-.079-.022-.195-.067-.25a.126.126 0 0 0-.099-.054zm-5.172.43l-.005.003-.003.002c-.012.01-.028.032-.062.056-.057.065-.067.11-.064.241.004.014.11.307.198.513.06.214.116.46.075.691-.14.306-.424.581-.698.73-.139.045-.26.03-.292 0v-.002a.18.18 0 0 1-.078-.166l.001-.002c.231-.16.495-.29.701-.725.061-.166.08-.265.02-.522a.496.496 0 0 0-.119-.242h.001c.04-.02.142.056.157.008a.76.76 0 0 0-.2-.37c-.083-.075-.172-.084-.248-.016-.084.047-.102.217-.062.365.046.112.168.131.255.356v.001c.002.014.03.168-.014.23-.035.111-.493.473-.526.494l-.003.002v.001l-.002.001v.001h-.002-.002v-.002-.002c-.002-.009 0-.032 0-.069-.004-.067.024-.22.022-.247v-.002H5.6c-.15.097-.2.397-.229.485-.383.265-.818.462-1.069.73-.13.204.9-.234 1.02-.287l.002.003c.023.025.025.113.093.191a.545.545 0 0 0 .556.18c.372-.135.586-.388.804-.669.03-.045.08-.08.125-.046.15.335.58.574 1.139.598.129-.157.067-.234.015-.267-.017-.01-.278-.112-.318-.214-.026-.094.036-.178.16-.24.359-.044.71-.092 1.052-.202a.925.925 0 0 1 .116-.36c.03-.051.051-.056.059-.064l.002-.002V7.54v-.01l-.058-.034-1.143-.005a.122.122 0 0 1-.031-.016l-.002-.002h-.001l-.001-.002-.001-.002H7.89v-.002h-.001v-.002-.002-.002-.002-.002l.002-.002a.086.086 0 0 1 .036-.02c.272-.038.757-.117.79-.584-.006-.243-.104-.402-.402-.446-.22.017-.376.23-.35.462-.011.063.02.186-.043.2-.42.039-.88.302-.894.49h-.001l-.001.001-.002.001h-.002l-.003.001h-.003a.027.027 0 0 0-.003 0h-.004c-.028-.008-.063-.053-.057-.117a2.254 2.254 0 0 0-.288-.978c-.06-.059-.086-.083-.102-.086h-.005-.001-.001-.001zm1.094.172c-.023.004-.046.024-.055.056-.005.021.01.057-.009.067-.01.011-.053.005-.052-.054 0-.018-.013-.039-.022-.05-.008-.006-.012-.008-.028-.008-.018.001-.018.006-.029.021-.004.016-.01.031-.01.05-.002.02-.01.027-.025.03-.017 0-.013.002-.027-.007-.008-.009-.019-.012-.019-.028a.166.166 0 0 0-.008-.052c-.007-.01-.02-.013-.033-.017-.071 0-.076.082-.072.113-.005.006-.009.154.09.194.131.063.445.026.368-.177a1.66 1.66 0 0 0-.007-.099c-.013-.031-.038-.043-.062-.039zm4.416.181l-.011.001s-.61.434-.625.45c-.06.053-.03.242 0 .22.043.017.657-.4.646-.448.026.002.04-.214-.01-.223zm-3.84.065a.156.156 0 0 1 .09.024c.045.026.073.066.07.095v.003l-.002.003-.001.003-.001.002-.001.002a.04.04 0 0 1-.006.007c-.022.02-.073.017-.12-.01-.045-.027-.073-.067-.07-.095v-.003l.005-.01.002-.004v-.001a.046.046 0 0 1 .006-.005.057.057 0 0 1 .029-.011zm-5.34.11c-.316.005-.78.414-.791.64.333-.16.66-.314 1-.48-.055-.081-.004-.155-.21-.16zm1.024.142c.03 0 .063.015.08.059.016.04.001.08-.017.102l-.001.003c-.014.017-.06.01-.093.01-.04-.002-.06-.009-.084-.041-.012-.037.023-.072.039-.1a.052.052 0 0 1 .008-.008.105.105 0 0 1 .068-.025zm8.037.125c-.056.007-.11.06-.085.145-.016.05.076.225.1.317.021.066-.028.253.017.272.04.022.149-.11.145-.277.012-.085-.03-.4-.138-.454a.101.101 0 0 0-.04-.003zm-6.826.308c-.05.004-.094.03-.074.1-.003.051.14.113.149.23.02.049-.03.204.012.218.039.016.093-.107.114-.222.011-.063-.05-.282-.152-.322a.176.176 0 0 0-.05-.004zm2.043.28H7.174c.127.034.315.038.478.054.133.009.198.113.074.156-.123.042-.24.075-.241.252.016.088.013.134-.001.155a.05.05 0 0 1-.004.005l-.001.001-.001.001-.001.001-.001.001-.002.001a.035.035 0 0 1-.006.003l-.006.001c-.03.005-.072-.023-.103-.04-.076-.054-.288-.185-.318-.468-.004-.063.043-.118.12-.124zm-4.99.216c-.008 0-.024.024-.045.051-.188.3-.205.747-.101.88.055.063.146.091.213.071.118-.05.17-.29.142-.378-.04-.061-.07-.071-.11-.019-.083.17-.118.054-.125-.04a2.167 2.167 0 0 1 .024-.475c.01-.066.01-.09.002-.09zm6.405.394a.086.086 0 0 0-.044.009.798.798 0 0 0-.177.15c-.026.02-.023.037-.015.072.02.046.056.031.096.01.053-.008.08.027.075.092-.025.08.01.11.01.115 0 .005.052.049.113.014.128-.05.207-.097.386-.135.047-.001.044-.127-.03-.131-.097.004-.186.01-.283.086-.06.013-.07-.023-.083-.055-.015-.081.034-.138.024-.198.003.002-.03-.027-.072-.03zm4.101.153c-.024 0-.049.004-.085.007-.04.008-.053.025-.06.073.003.072.047.068.092.097.026.033.043.063-.002.118-.043.039-.073.06-.116.1-.02.034-.033.087.03.104.113.032.377-.14.377-.143.043-.032.029-.093.025-.093-.025-.029-.081-.012-.119-.016-.018 0-.077-.01-.049-.061a.354.354 0 0 0 .048-.092c.018-.04.002-.066-.062-.087a.356.356 0 0 0-.079-.007zm-1.713 3.468l-.001.001c-.19.05-.184.246-.062.332-2.003 0-5.077-.034-5.736-.034-.369 0-1.536-.044-1.558-.044.25.366.612.44 1.087.448.89 0 5.012-.01 6.185-.01-.084.147.007.386.073.43a.045.045 0 0 0 .013.006h.003c.077.018.112-.038.138-.08.126.012.835.022.9 0v-.002c.045.065.088.126.172.115.146-.03.261-.047.265-.344 0 0-.015-.505-.347-.474-.079.012-.3.034-.3.034-.254-.03-.441-.033-.728-.044.026-.033.073-.17.016-.219-.015-.012-.037-.019-.068-.017h-.001-.002-.001l-.003-.002a.03.03 0 0 1-.005-.005l-.002-.002c-.015-.02-.023-.072-.032-.086h-.001l-.001-.002h-.002-.001-.001zm.136.723c.293.015.568.003.86.017.046.04.023.13-.007.146a.033.033 0 0 1-.005.002h-.008l-.245-.007c0-.004 0-.01-.002-.014-.023-.066-.186-.062-.224-.01l-.002.003-.002.004a.057.057 0 0 0-.002.005l-.001.007-.001.008c-.128.016-.244-.004-.372-.009-.038-.046-.033-.131.01-.152z" fill="#FFF"/></g></g></svg>