<?xml version="1.0" encoding="UTF-8"?>
<svg width="48px" height="47px" viewBox="0 0 48 47" version="1.1" xmlns="http://www.w3.org/2000/svg" xmlns:xlink="http://www.w3.org/1999/xlink">
    <!-- Generator: Sketch 59.1 (86144) - https://sketch.com -->
    <title>Group 12</title>
    <desc>Created with Sketch.</desc>
    <g id="Symbols" stroke="none" stroke-width="1" fill="none" fill-rule="evenodd">
        <g id="Top-Navigation-1---Desktop" transform="translate(-28.000000, -10.000000)">
            <g id="Group-23">
                <g id="Group-21">
                    <g id="Group-10" transform="translate(19.538462, 9.000000)">
                        <g id="Group-9" transform="translate(0.461538, 0.000000)">
                            <g id="Group-8">
                                <g id="Group-4">
                                    <g id="Group-3">
                                        <g id="Group" transform="translate(0.261224, 0.326527)">
                                            <g id="Group-2">
                                                <g id="Untitled-2-Copy" transform="translate(0.183673, 0.183600)">
                                                    <g id="Group-11" transform="translate(0.000000, 0.011347)">
                                                        <g id="Group-12" transform="translate(0.555102, 0.816400)">
                                                            <path d="M36.7273469,28.0144903 C36.8638009,27.8264621 36.9902353,27.6313628 37.1061224,27.4300064 C37.3934694,26.8847059 37.6710204,26.33614 37.9322449,25.79737 C38.0987755,25.4512511 38.2293878,25.0888058 38.3828571,24.7361563 C38.5755102,24.2888139 38.7812245,23.8512674 38.9771429,23.403925 C39.1338776,23.044745 39.2710204,22.6725039 39.4408163,22.3165891 C39.7314286,21.7027178 40.0187755,21.082316 40.3420408,20.4847711 C40.6026014,20.0000803 40.888156,19.529247 41.197551,19.0741732 C41.4412112,18.7020279 41.7792397,18.4011857 42.1771429,18.2023453 C42.4936945,18.0378871 42.8718105,18.0440253 43.1828571,18.2186717 C43.7184297,18.5360653 44.1514211,19.0007896 44.4302041,19.5574336 C44.6293878,19.9035525 44.8285714,20.2496714 45.0081633,20.6088514 C45.1877551,20.9680314 45.3053061,21.261906 45.4489796,21.5884333 C45.5926531,21.9149606 45.72,22.1925088 45.8440816,22.5027097 C46.0073469,22.9043383 46.1510204,23.3124974 46.3110204,23.7141259 C46.4710204,24.1157545 46.637551,24.4749345 46.7877551,24.8602367 C46.915102,25.186764 47.0228571,25.4936996 47.1469388,25.8039006 C47.2514286,26.0585918 47.362449,26.3132831 47.4734694,26.5581786 C47.6955102,26.9989904 47.9338776,27.436537 48.1657143,27.8642877 C48.2004055,27.9168562 48.2385866,27.9670365 48.28,28.0144903 C48.2016327,27.687963 48.1395918,27.4234759 48.0710204,27.149193 C48.0318367,26.9859293 47.9959184,26.8226657 47.9502041,26.6561368 C47.8657368,26.340716 47.7643659,26.0300664 47.6465306,25.725534 C47.5420408,25.4806385 47.5191837,25.2161514 47.395102,24.9745212 C47.2514033,24.6420406 47.1292462,24.3006586 47.0293878,23.9524908 C46.8791837,23.5345359 46.7191837,23.1198463 46.5657143,22.7018913 L46.1934694,21.6733304 L45.9681633,21.0725202 C45.8342857,20.7166054 45.7036735,20.3606907 45.5665306,20.0080412 C45.4293878,19.6553918 45.24,19.2145799 45.0963265,18.8162166 C44.9689796,18.4896893 44.8546939,18.1370399 44.7306122,17.7974515 C44.6065306,17.4578631 44.4857143,17.1443969 44.3714286,16.8178696 C44.2865306,16.5729742 44.2081633,16.3215482 44.1330612,16.0701221 C44.0579592,15.8186961 43.9861224,15.5835965 43.9208163,15.3354358 C43.8818934,15.193686 43.8513642,15.0497642 43.8293878,14.9044197 C43.8156163,14.5989491 43.9346891,14.3024606 44.1559184,14.0913668 C44.5227704,13.6759604 44.9395314,13.3074596 45.3967347,12.9942351 C45.8321088,12.6851226 46.2827211,12.3858059 46.7485714,12.0962851 C47.2285714,11.7926147 47.7281633,11.4954749 48.2114286,11.2146614 C48.6261224,10.9730312 49.0538776,10.7509927 49.4783673,10.5256888 C49.9028571,10.300385 50.3632653,10.0587548 50.8138776,9.83345098 C51.2057143,9.64079988 51.6040816,9.4579446 52.002449,9.27182405 C52.4008163,9.0857035 52.8481633,8.87672603 53.2791837,8.69713602 C53.5409008,8.58885608 53.811958,8.50469807 54.0889796,8.44571001 C54.3861224,8.3869351 54.5102041,8.67101384 54.4808163,8.90611349 C54.4709213,9.05482033 54.3732825,9.18329106 54.2326531,9.23264077 C53.8440816,9.36978223 53.4620408,9.52651533 53.0865306,9.68977897 C52.76,9.83345098 52.4497959,10.0163063 52.1330612,10.156713 C51.8163265,10.2971197 51.4995918,10.4603834 51.1861224,10.6171165 C50.8008163,10.8086791 50.4187755,11.0045955 50.04,11.2048656 C49.6122449,11.4236389 49.1844898,11.6456774 48.7632653,11.8775118 C48.3420408,12.1093462 48.0155102,12.3085278 47.6497959,12.5305664 C47.1306122,12.8570937 46.6081633,13.1836209 46.1053061,13.5297399 C45.5999385,13.8472997 45.147157,14.2416893 44.7632653,14.6987075 C44.7085879,14.839432 44.7085879,14.9955297 44.7632653,15.1362541 C44.844898,15.4627814 44.9493878,15.7893087 45.0571429,16.0929791 C45.164898,16.3966494 45.3053061,16.7819516 45.4293878,17.1248053 C45.5534694,17.4676589 45.6644898,17.8203084 45.7885714,18.1664273 C45.8604082,18.365609 45.9420408,18.5615253 46.0171429,18.760707 C46.1510204,19.119887 46.2783673,19.479067 46.4155102,19.8349818 C46.5526531,20.1908965 46.7257143,20.615382 46.8759184,21.0072147 C47.0065306,21.333742 47.1208163,21.692922 47.2514286,22.0357757 C47.3820408,22.3786293 47.5028571,22.6594428 47.6204082,22.972909 C47.7085714,23.2047434 47.7869388,23.4431083 47.8685714,23.6749426 C47.9502041,23.906777 48.0644898,24.1777947 48.1461224,24.432486 C48.2081633,24.6153412 48.2408163,24.8047271 48.2930612,24.9875823 C48.3191837,25.07901 48.3714286,25.1606418 48.4008163,25.2488042 C48.5085714,25.5753315 48.6130612,25.9018587 48.7273469,26.2447124 C48.8416327,26.587566 48.9428571,26.897767 49.0179592,27.2242942 C49.0958871,27.5623852 49.1450423,27.9064683 49.164898,28.2528552 C49.208767,28.5173329 49.121041,28.7866003 48.9297959,28.9744805 C48.6568399,29.2054325 48.2508991,29.182482 48.0057143,28.9222361 C47.5930181,28.5389378 47.2678072,28.0711734 47.0522449,27.5508215 C46.7746939,26.9304197 46.4906122,26.3100178 46.2195918,25.6863507 C45.9812245,25.1279891 45.7526531,24.5630969 45.5273469,24.0014699 C45.3346939,23.5182095 45.1714286,23.0218881 44.962449,22.5516888 C44.6359184,21.8202677 44.3093878,21.0888465 43.9306122,20.3770171 C43.7197548,20.0000256 43.4818527,19.6388111 43.2187755,19.2962117 C43.1211095,19.1202192 42.9519894,18.9951669 42.755102,18.9533581 C42.664111,18.9450277 42.5725863,18.9619766 42.4906122,19.0023372 C42.1721737,19.1910159 41.9113507,19.4631271 41.7363265,19.7892679 C41.4457143,20.2496714 41.1714286,20.723136 40.92,21.2031311 C40.7077551,21.6047597 40.5281633,22.0292451 40.3387755,22.4439348 C40.0710204,23.0349492 39.8032653,23.6259636 39.5453061,24.2202432 C39.3526531,24.6577898 39.1828571,25.1051322 38.9869388,25.5426787 C38.764898,26.0390002 38.5297959,26.5222606 38.2881633,27.0153168 C38.0889796,27.4136801 37.8832653,27.8120434 37.635102,28.1940803 C37.4445162,28.5585141 37.1424875,28.8525314 36.7730612,29.0332554 C36.6010134,29.1170105 36.4008881,29.121096 36.2255654,29.0444323 C36.0502426,28.9677686 35.9173641,28.8180701 35.8620408,28.6348921 C35.7852523,28.389329 35.7852523,28.1261772 35.8620408,27.8806141 C35.96,27.5377604 36.0187755,27.1818457 36.12,26.8422573 C36.2212245,26.5026689 36.364898,26.1532847 36.4889796,25.8104311 C36.5640816,25.5916578 36.6293878,25.366354 36.7110204,25.1573765 C36.7926531,24.9483991 36.9004082,24.71983 36.9918367,24.504322 C37.0832653,24.2888139 37.1485714,24.0961628 37.2302041,23.8969812 C37.3640816,23.5704539 37.5012245,23.2439266 37.6318367,22.9173993 C37.762449,22.5908721 37.8473469,22.3492419 37.9583673,22.0684284 C38.0693878,21.7876149 38.2261224,21.4545571 38.3534694,21.1443562 C38.4808163,20.8341553 38.5755102,20.579464 38.68,20.2953852 C38.7844898,20.0113065 38.9314286,19.6423307 39.0522449,19.3386603 C39.1730612,19.0349899 39.2906122,18.6856057 39.4114286,18.3754048 C39.5093878,18.114183 39.6171429,17.8562264 39.7085714,17.5917393 C39.8,17.3272522 39.8555102,17.0758262 39.9306122,16.8211349 C40.0046359,16.6133919 40.0678498,16.4019544 40.12,16.187672 C40.2310269,15.8119793 40.2698071,15.4186411 40.2342857,15.0285001 C40.186999,14.8985888 40.103068,14.7851697 39.9926531,14.7019728 C39.5524045,14.3075667 39.0818401,13.9483693 38.5853061,13.627698 C38.0138776,13.2652528 37.4620408,12.8799506 36.8938776,12.51424 C36.5869388,12.3183236 36.2604082,12.1485294 35.9436735,11.9624089 C35.4244898,11.6587385 34.9085714,11.3485376 34.3861224,11.0481325 C33.9355102,10.7934412 33.4783673,10.5485457 33.0179592,10.300385 L31.7640816,9.64733043 C31.5061224,9.51345424 31.2546939,9.36651696 30.9967347,9.23264077 C30.8207477,9.12234338 30.7341834,8.91249269 30.7812245,8.71019712 C30.8040816,8.58938202 31.0163265,8.45224056 31.1632653,8.43264892 C31.3536103,8.43546674 31.5379722,8.49959194 31.6889796,8.6155042 C32.12,8.83754276 32.5510204,9.06937713 32.9755102,9.30447678 C33.3020408,9.4938626 33.6546939,9.69304425 33.9942857,9.88243007 C34.4416327,10.1338561 34.8922449,10.372221 35.3363265,10.6269123 C35.9436735,10.9762965 36.5542857,11.3256807 37.1485714,11.6946565 C37.8440816,12.1256725 38.5330612,12.5664844 39.2122449,13.0236226 C39.7817264,13.3878466 40.3066531,13.8174273 40.7763265,14.3036095 C41.059928,14.6297008 41.1800548,15.066958 41.1028571,15.4921689 C41.0922429,15.6576315 41.071524,15.8222907 41.0408163,15.9852251 C40.962449,16.3117523 40.8742857,16.6382796 40.7861224,16.9876638 C40.7469388,17.1443969 40.7077551,17.3141911 40.6587755,17.4578631 C40.5771429,17.7125544 40.4889796,17.9672457 40.4008163,18.221937 C40.3126531,18.4766282 40.2277551,18.6856057 40.1363265,18.9141748 L39.7379592,19.9427358 C39.6269388,20.2300798 39.5257143,20.5239543 39.4114286,20.8112983 C39.2971429,21.0986424 39.1567347,21.4317002 39.0326531,21.7419011 C38.8791837,22.1206728 38.7322449,22.5027097 38.5755102,22.8814813 C38.4481633,23.1851517 38.3044898,23.4822915 38.1771429,23.7859619 C38.0497959,24.0896323 37.9583673,24.3541194 37.8506122,24.6381981 L37.4881633,25.5785967 C37.3673469,25.905124 37.24,26.2316513 37.122449,26.5581786 C37.004898,26.8847059 36.9102041,27.1524582 36.8187755,27.4561286 C36.770671,27.6356531 36.7325177,27.8176971 36.7044898,28.0014292 L36.7273469,28.0144903 Z" id="Path" fill="#FBC02D" fill-rule="nonzero"></path>
                                                            <path d="M45.3216737,9.88243007 C45.3135174,11.3647923 44.1052345,12.5599058 42.6228571,12.5518317 C41.1404798,12.5436755 39.9453542,11.3354049 39.9534283,9.85304262 C39.9615846,8.37068036 41.1698675,7.17556693 42.6522449,7.18364097 C44.1346223,7.19179717 45.3297479,8.40006782 45.3216737,9.88243007 Z M40.8318367,9.85304262 C40.8212119,10.3398086 41.008323,10.8100985 41.3504436,11.1565228 C41.6925642,11.5029472 42.1604812,11.6959253 42.6473469,11.6913912 C43.5852419,11.6840406 44.3660739,10.9694597 44.4563265,10.0358979 C44.5367084,9.36126385 44.2343676,8.69807542 43.672374,8.31628778 C43.1103804,7.93450014 42.3824455,7.89777587 41.7848802,8.22106383 C41.1873148,8.54435179 40.8197621,9.17374414 40.8318367,9.85304262 L40.8318367,9.85304262 Z" id="Shape" fill="#78909C" fill-rule="nonzero"></path>
                                                            <path d="M13.5436735,28.0144903 C13.6801275,27.8264621 13.8065618,27.6313628 13.922449,27.4300064 C14.2097959,26.8847059 14.4873469,26.33614 14.7485714,25.79737 C14.915102,25.4512511 15.0457143,25.0888058 15.1991837,24.7361563 C15.3918367,24.2888139 15.597551,23.8512674 15.7934694,23.403925 C15.9502041,23.044745 16.0873469,22.6725039 16.2571429,22.3165891 C16.5477551,21.7027178 16.835102,21.082316 17.1583673,20.4847711 C17.4189279,20.0000803 17.7044825,19.529247 18.0138776,19.0741732 C18.2575378,18.7020279 18.5955662,18.4011857 18.9934694,18.2023453 C19.3100211,18.0378871 19.688137,18.0440253 19.9991837,18.2186717 C20.5347562,18.5360653 20.9677477,19.0007896 21.2465306,19.5574336 C21.4457143,19.9035525 21.644898,20.2496714 21.8244898,20.6088514 C22.0040816,20.9680314 22.1216327,21.261906 22.2653061,21.5884333 C22.4089796,21.9149606 22.5363265,22.1925088 22.6604082,22.5027097 C22.8236735,22.9043383 22.9673469,23.3124974 23.1273469,23.7141259 C23.2873469,24.1157545 23.4538776,24.4749345 23.6040816,24.8602367 C23.7314286,25.186764 23.8391837,25.4936996 23.9632653,25.8039006 C24.0677551,26.0585918 24.1787755,26.3132831 24.2897959,26.5581786 C24.5118367,26.9989904 24.7502041,27.436537 24.9820408,27.8642877 C25.016732,27.9168562 25.0549131,27.9670365 25.0963265,28.0144903 C25.0179592,27.687963 24.9559184,27.4234759 24.8873469,27.149193 C24.8481633,26.9859293 24.8122449,26.8226657 24.7665306,26.6561368 C24.6820633,26.340716 24.5806924,26.0300664 24.4628571,25.725534 C24.3583673,25.4806385 24.3355102,25.2161514 24.2114286,24.9745212 C24.0677298,24.6420406 23.9455727,24.3006586 23.8457143,23.9524908 C23.6955102,23.5345359 23.5355102,23.1198463 23.3820408,22.7018913 L23.0097959,21.6733304 L22.7844898,21.0725202 C22.6506122,20.7166054 22.52,20.3606907 22.3828571,20.0080412 C22.2457143,19.6553918 22.0563265,19.2145799 21.9126531,18.8162166 C21.7853061,18.4896893 21.6710204,18.1370399 21.5469388,17.7974515 C21.4228571,17.4578631 21.3020408,17.1443969 21.1877551,16.8178696 C21.1028571,16.5729742 21.0244898,16.3215482 20.9493878,16.0701221 C20.8742857,15.8186961 20.802449,15.5835965 20.7371429,15.3354358 C20.6982199,15.193686 20.6676907,15.0497642 20.6457143,14.9044197 C20.6319428,14.5989491 20.7510157,14.3024606 20.9722449,14.0913668 C21.3390969,13.6759604 21.755858,13.3074596 22.2130612,12.9942351 C22.6484354,12.6851226 23.0990476,12.3858059 23.564898,12.0962851 C24.044898,11.7926147 24.5444898,11.4954749 25.0277551,11.2146614 C25.442449,10.9730312 25.8702041,10.7509927 26.2946939,10.5256888 C26.7191837,10.300385 27.1795918,10.0587548 27.6302041,9.83345098 C28.0220408,9.64079988 28.4204082,9.4579446 28.8187755,9.27182405 C29.2171429,9.0857035 29.6644898,8.87672603 30.0955102,8.69713602 C30.3572273,8.58885608 30.6282845,8.50469807 30.9053061,8.44571001 C31.202449,8.3869351 31.3265306,8.67101384 31.2971429,8.90611349 C31.2872478,9.05482033 31.189609,9.18329106 31.0489796,9.23264077 C30.6604082,9.36978223 30.2783673,9.52651533 29.9028571,9.68977897 C29.5763265,9.83345098 29.2661224,10.0163063 28.9493878,10.156713 C28.6326531,10.2971197 28.3159184,10.4603834 28.002449,10.6171165 C27.6171429,10.8086791 27.235102,11.0045955 26.8563265,11.2048656 C26.4285714,11.4236389 26.0008163,11.6456774 25.5795918,11.8775118 C25.1583673,12.1093462 24.8318367,12.3085278 24.4661224,12.5305664 C23.9469388,12.8570937 23.4244898,13.1836209 22.9216327,13.5297399 C22.416265,13.8472997 21.9634835,14.2416893 21.5795918,14.6987075 C21.5249145,14.839432 21.5249145,14.9955297 21.5795918,15.1362541 C21.6612245,15.4627814 21.7657143,15.7893087 21.8734694,16.0929791 C21.9812245,16.3966494 22.1216327,16.7819516 22.2457143,17.1248053 C22.3697959,17.4676589 22.4808163,17.8203084 22.604898,18.1664273 C22.6767347,18.365609 22.7583673,18.5615253 22.8334694,18.760707 C22.9673469,19.119887 23.0946939,19.479067 23.2318367,19.8349818 C23.3689796,20.1908965 23.5420408,20.615382 23.6922449,21.0072147 C23.8228571,21.333742 23.9371429,21.692922 24.0677551,22.0357757 C24.1983673,22.3786293 24.3191837,22.6594428 24.4367347,22.972909 C24.524898,23.2047434 24.6032653,23.4431083 24.684898,23.6749426 C24.7665306,23.906777 24.8808163,24.1777947 24.962449,24.432486 C25.0244898,24.6153412 25.0571429,24.8047271 25.1093878,24.9875823 C25.1355102,25.07901 25.1877551,25.1606418 25.2171429,25.2488042 C25.324898,25.5753315 25.4293878,25.9018587 25.5436735,26.2447124 C25.6579592,26.587566 25.7591837,26.897767 25.8342857,27.2242942 C25.9122136,27.5623852 25.9613689,27.9064683 25.9812245,28.2528552 C26.0250936,28.5173329 25.9373676,28.7866003 25.7461224,28.9744805 C25.4731664,29.2054325 25.0672257,29.182482 24.8220408,28.9222361 C24.4093447,28.5389378 24.0841338,28.0711734 23.8685714,27.5508215 C23.5910204,26.9304197 23.3069388,26.3100178 23.0359184,25.6863507 C22.797551,25.1279891 22.5689796,24.5630969 22.3436735,24.0014699 C22.1510204,23.5182095 21.9877551,23.0218881 21.7787755,22.5516888 C21.4522449,21.8202677 21.1257143,21.0888465 20.7469388,20.3770171 C20.5360813,20.0000256 20.2981792,19.6388111 20.035102,19.2962117 C19.937436,19.1202192 19.768316,18.9951669 19.5714286,18.9533581 C19.4804376,18.9450277 19.3889128,18.9619766 19.3069388,19.0023372 C18.9885003,19.1910159 18.7276773,19.4631271 18.5526531,19.7892679 C18.2620408,20.2496714 17.9877551,20.723136 17.7363265,21.2031311 C17.5240816,21.6047597 17.3444898,22.0292451 17.155102,22.4439348 C16.8873469,23.0349492 16.6195918,23.6259636 16.3616327,24.2202432 C16.1689796,24.6577898 15.9991837,25.1051322 15.8032653,25.5426787 C15.5812245,26.0390002 15.3461224,26.5222606 15.1044898,27.0153168 C14.9053061,27.4136801 14.6995918,27.8120434 14.4514286,28.1940803 C14.2608427,28.5585141 13.9588141,28.8525314 13.5893878,29.0332554 C13.4173399,29.1170105 13.2172147,29.121096 13.0418919,29.0444323 C12.8665691,28.9677686 12.7336906,28.8180701 12.6783673,28.6348921 C12.6015788,28.389329 12.6015788,28.1261772 12.6783673,27.8806141 C12.7763265,27.5377604 12.835102,27.1818457 12.9363265,26.8422573 C13.037551,26.5026689 13.1812245,26.1532847 13.3053061,25.8104311 C13.3804082,25.5916578 13.4457143,25.366354 13.5273469,25.1573765 C13.6089796,24.9483991 13.7167347,24.71983 13.8081633,24.504322 C13.8995918,24.2888139 13.964898,24.0961628 14.0465306,23.8969812 C14.1804082,23.5704539 14.317551,23.2439266 14.4481633,22.9173993 C14.5787755,22.5908721 14.6636735,22.3492419 14.7746939,22.0684284 C14.8857143,21.7876149 15.042449,21.4545571 15.1697959,21.1443562 C15.2971429,20.8341553 15.3918367,20.579464 15.4963265,20.2953852 C15.6008163,20.0113065 15.7477551,19.6423307 15.8685714,19.3386603 C15.9893878,19.0349899 16.1069388,18.6856057 16.2277551,18.3754048 C16.3257143,18.114183 16.4334694,17.8562264 16.524898,17.5917393 C16.6163265,17.3272522 16.6718367,17.0758262 16.7469388,16.8211349 C16.8209624,16.6133919 16.8841764,16.4019544 16.9363265,16.187672 C17.0473534,15.8119793 17.0861336,15.4186411 17.0506122,15.0285001 C17.0033256,14.8985888 16.9193946,14.7851697 16.8089796,14.7019728 C16.368731,14.3075667 15.8981666,13.9483693 15.4016327,13.627698 C14.8302041,13.2652528 14.2783673,12.8799506 13.7102041,12.51424 C13.4032653,12.3183236 13.0767347,12.1485294 12.76,11.9624089 C12.2408163,11.6587385 11.724898,11.3485376 11.202449,11.0481325 C10.7518367,10.7934412 10.2946939,10.5485457 9.83428571,10.300385 L8.58040816,9.64733043 C8.32244898,9.51345424 8.07102041,9.36651696 7.81306122,9.23264077 C7.63707419,9.12234338 7.5505099,8.91249269 7.59755102,8.71019712 C7.62040816,8.58938202 7.83265306,8.45224056 7.97959184,8.43264892 C8.16993686,8.43546674 8.3542987,8.49959194 8.50530612,8.6155042 C8.93632653,8.83754276 9.36734694,9.06937713 9.79183673,9.30447678 C10.1183673,9.4938626 10.4710204,9.69304425 10.8106122,9.88243007 C11.2579592,10.1338561 11.7085714,10.372221 12.1526531,10.6269123 C12.76,10.9762965 13.3706122,11.3256807 13.964898,11.6946565 C14.6604082,12.1256725 15.3493878,12.5664844 16.0285714,13.0236226 C16.5980529,13.3878466 17.1229797,13.8174273 17.5926531,14.3036095 C17.8762545,14.6297008 17.9963814,15.066958 17.9191837,15.4921689 C17.9085695,15.6576315 17.8878505,15.8222907 17.8571429,15.9852251 C17.7787755,16.3117523 17.6906122,16.6382796 17.602449,16.9876638 C17.5632653,17.1443969 17.5240816,17.3141911 17.475102,17.4578631 C17.3934694,17.7125544 17.3053061,17.9672457 17.2171429,18.221937 C17.1289796,18.4766282 17.0440816,18.6856057 16.9526531,18.9141748 L16.5542857,19.9427358 C16.4432653,20.2300798 16.3420408,20.5239543 16.2277551,20.8112983 C16.1134694,21.0986424 15.9730612,21.4317002 15.8489796,21.7419011 C15.6955102,22.1206728 15.5485714,22.5027097 15.3918367,22.8814813 C15.2644898,23.1851517 15.1208163,23.4822915 14.9934694,23.7859619 C14.8661224,24.0896323 14.7746939,24.3541194 14.6669388,24.6381981 L14.3044898,25.5785967 C14.1836735,25.905124 14.0563265,26.2316513 13.9387755,26.5581786 C13.8212245,26.8847059 13.7265306,27.1524582 13.635102,27.4561286 C13.5869975,27.6356531 13.5488442,27.8176971 13.5208163,28.0014292 L13.5436735,28.0144903 Z" id="Path" fill="#FBC02D" fill-rule="nonzero"></path>
                                                            <path d="M22.1380003,9.88243007 C22.129844,11.3647923 20.921561,12.5599058 19.4391837,12.5518317 C17.9568063,12.5436755 16.7616807,11.3354049 16.7697548,9.85304262 C16.7779111,8.37068036 17.9861941,7.17556693 19.4685714,7.18364097 C20.9509488,7.19179717 22.1460744,8.40006782 22.1380003,9.88243007 Z M17.6481633,9.85304262 C17.6375384,10.3398086 17.8246495,10.8100985 18.1667701,11.1565228 C18.5088907,11.5029472 18.9768077,11.6959253 19.4636735,11.6913912 C20.4015684,11.6840406 21.1824004,10.9694597 21.2726531,10.0358979 C21.3530349,9.36126385 21.0506942,8.69807542 20.4887005,8.31628778 C19.9267069,7.93450014 19.1987721,7.89777587 18.6012067,8.22106383 C18.0036413,8.54435179 17.6360886,9.17374414 17.6481633,9.85304262 L17.6481633,9.85304262 Z" id="Shape" fill="#78909C" fill-rule="nonzero"></path>
                                                            <path d="M25.2987755,20.83089 C25.4352295,20.6428618 25.5616639,20.4477625 25.677551,20.2464061 C25.964898,19.7011056 26.242449,19.1525397 26.5036735,18.6137697 C26.6702041,18.2676508 26.8008163,17.9052055 26.9542857,17.552556 C27.1469388,17.1052136 27.3526531,16.6676671 27.5485714,16.2203247 C27.7053061,15.8611447 27.842449,15.4889036 28.0122449,15.1329888 C28.3028571,14.5191175 28.5902041,13.8987157 28.9134694,13.3011708 C29.17403,12.81648 29.4595845,12.3456467 29.7689796,11.8905729 C30.0126398,11.5184276 30.3506683,11.2175854 30.7485714,11.018745 C31.0651231,10.8542868 31.443239,10.860425 31.7542857,11.0350714 C32.2898583,11.352465 32.7228497,11.8171893 33.0016327,12.3738333 C33.2008163,12.7199522 33.4,13.0660711 33.5795918,13.4252511 C33.7591837,13.7844311 33.8767347,14.0783057 34.0204082,14.404833 C34.1640816,14.7313603 34.2914286,15.0089085 34.4155102,15.3191094 C34.5787755,15.720738 34.722449,16.1288971 34.882449,16.5305256 C35.042449,16.9321542 35.2089796,17.2913342 35.3591837,17.6766364 C35.4865306,18.0031637 35.5942857,18.3100993 35.7183673,18.6203003 C35.8228571,18.8749915 35.9338776,19.1296828 36.044898,19.3745783 C36.2669388,19.8153901 36.5053061,20.2529367 36.7371429,20.6806874 C36.7718341,20.7332559 36.8100152,20.7834362 36.8514286,20.83089 C36.7730612,20.5043627 36.7110204,20.2398756 36.642449,19.9655927 C36.6032653,19.802329 36.5673469,19.6390654 36.5216327,19.4725365 C36.4371654,19.1571157 36.3357945,18.8464661 36.2179592,18.5419337 C36.1134694,18.2970382 36.0906122,18.0325511 35.9665306,17.7909209 C35.8228318,17.4584403 35.7006747,17.1170583 35.6008163,16.7688905 C35.4506122,16.3509356 35.2906122,15.936246 35.1371429,15.518291 L34.764898,14.4897301 L34.5395918,13.8889199 C34.4057143,13.5330051 34.275102,13.1770904 34.1379592,12.8244409 C34.0008163,12.4717915 33.8114286,12.0309796 33.6677551,11.6326163 C33.5404082,11.306089 33.4261224,10.9534396 33.3020408,10.6138512 C33.1779592,10.2742628 33.0571429,9.96079662 32.9428571,9.63426934 C32.8579592,9.38937387 32.7795918,9.13794786 32.7044898,8.88652185 C32.6293878,8.63509584 32.557551,8.39999619 32.4922449,8.15183546 C32.453322,8.01008571 32.4227928,7.86616385 32.4008163,7.72081944 C32.3870448,7.41534875 32.5061177,7.11886034 32.7273469,6.9077665 C33.094199,6.49236008 33.51096,6.12385934 33.9681633,5.81063481 C34.4035374,5.50152232 34.8541497,5.20220564 35.32,4.91268478 C35.8,4.6090144 36.2995918,4.31187457 36.7828571,4.0310611 C37.197551,3.78943091 37.6253061,3.56739236 38.0497959,3.34208853 C38.4742857,3.1167847 38.9346939,2.87515451 39.3853061,2.64985068 C39.7771429,2.45719958 40.1755102,2.2743443 40.5738776,2.08822375 C40.9722449,1.9021032 41.4195918,1.69312573 41.8506122,1.51353573 C42.1123294,1.40525578 42.3833865,1.32109777 42.6604082,1.26210972 C42.957551,1.2033348 43.0816327,1.48741354 43.0522449,1.72251319 C43.0423498,1.87122003 42.9447111,1.99969076 42.8040816,2.04904048 C42.4155102,2.18618194 42.0334694,2.34291503 41.6579592,2.50617868 C41.3314286,2.64985068 41.0212245,2.83270596 40.7044898,2.9731127 C40.3877551,3.11351943 40.0710204,3.27678307 39.757551,3.43351617 C39.3722449,3.62507884 38.9902041,3.82099522 38.6114286,4.02126529 C38.1836735,4.24003857 37.7559184,4.46207712 37.3346939,4.69391149 C36.9134694,4.92574587 36.5869388,5.12492751 36.2212245,5.34696607 C35.7020408,5.67349335 35.1795918,6.00002064 34.6767347,6.34613956 C34.1713671,6.66369943 33.7185856,7.05808902 33.3346939,7.51510725 C33.2800165,7.6558317 33.2800165,7.81192936 33.3346939,7.95265381 C33.4163265,8.2791811 33.5208163,8.60570838 33.6285714,8.90937876 C33.7363265,9.21304914 33.8767347,9.59835133 34.0008163,9.94120499 C34.124898,10.2840586 34.2359184,10.6367081 34.36,10.982827 C34.4318367,11.1820087 34.5134694,11.377925 34.5885714,11.5771067 C34.722449,11.9362867 34.8497959,12.2954667 34.9869388,12.6513815 C35.1240816,13.0072962 35.2971429,13.4317817 35.4473469,13.8236144 C35.5779592,14.1501417 35.6922449,14.5093217 35.8228571,14.8521754 C35.9534694,15.195029 36.0742857,15.4758425 36.1918367,15.7893087 C36.28,16.0211431 36.3583673,16.259508 36.44,16.4913423 C36.5216327,16.7231767 36.6359184,16.9941944 36.717551,17.2488857 C36.7795918,17.4317409 36.8122449,17.6211268 36.8644898,17.803982 C36.8906122,17.8954097 36.9428571,17.9770415 36.9722449,18.0652039 C37.08,18.3917312 37.1844898,18.7182584 37.2987755,19.0611121 C37.4130612,19.4039657 37.5142857,19.7141667 37.5893878,20.0406939 C37.6673157,20.3787849 37.7164709,20.722868 37.7363265,21.0692549 C37.7801956,21.3337326 37.6924696,21.603 37.5012245,21.7908802 C37.2282685,22.0218322 36.8223277,21.9988817 36.5771429,21.7386358 C36.1644467,21.3553375 35.8392358,20.8875731 35.6236735,20.3672212 C35.3461224,19.7468194 35.0620408,19.1264175 34.7910204,18.5027504 C34.5526531,17.9443888 34.3240816,17.3794966 34.0987755,16.8178696 C33.9061224,16.3346093 33.7428571,15.8382878 33.5338776,15.3680885 C33.2073469,14.6366674 32.8808163,13.9052462 32.5020408,13.1934168 C32.2911833,12.8164253 32.0532813,12.4552108 31.7902041,12.1126114 C31.692538,11.9366189 31.523418,11.8115666 31.3265306,11.7697578 C31.2355396,11.7614275 31.1440149,11.7783763 31.0620408,11.8187369 C30.7436023,12.0074156 30.4827793,12.2795268 30.3077551,12.6056676 C30.0171429,13.0660711 29.7428571,13.5395357 29.4914286,14.0195308 C29.2791837,14.4211594 29.0995918,14.8456448 28.9102041,15.2603345 C28.642449,15.8513489 28.3746939,16.4423633 28.1167347,17.0366429 C27.9240816,17.4741895 27.7542857,17.9215319 27.5583673,18.3590784 C27.3363265,18.8553999 27.1012245,19.3386603 26.8595918,19.8317165 C26.6604082,20.2300798 26.4546939,20.6284431 26.2065306,21.01048 C26.0159448,21.3749138 25.7139161,21.6689311 25.3444898,21.8496551 C25.172442,21.9334102 24.9723167,21.9374957 24.7969939,21.860832 C24.6216711,21.7841683 24.4887926,21.6344698 24.4334694,21.4512918 C24.3566808,21.2057287 24.3566808,20.9425769 24.4334694,20.6970138 C24.5314286,20.3541601 24.5902041,19.9982454 24.6914286,19.658657 C24.7926531,19.3190686 24.9363265,18.9696845 25.0604082,18.6268308 C25.1355102,18.4080575 25.2008163,18.1827537 25.282449,17.9737762 C25.3640816,17.7647988 25.4718367,17.5362297 25.5632653,17.3207217 C25.6546939,17.1052136 25.72,16.9125625 25.8016327,16.7133809 C25.9355102,16.3868536 26.0726531,16.0603263 26.2032653,15.733799 C26.3338776,15.4072718 26.4187755,15.1656416 26.5297959,14.8848281 C26.6408163,14.6040146 26.797551,14.2709568 26.924898,13.9607559 C27.0522449,13.650555 27.1469388,13.3958637 27.2514286,13.1117849 C27.3559184,12.8277062 27.5028571,12.4587304 27.6236735,12.15506 C27.7444898,11.8513896 27.8620408,11.5020054 27.9828571,11.1918045 C28.0808163,10.9305827 28.1885714,10.6726261 28.28,10.408139 C28.3714286,10.1436519 28.4269388,9.89222589 28.5020408,9.63753461 C28.5760645,9.42979163 28.6392784,9.21835409 28.6914286,9.00407167 C28.8024555,8.628379 28.8412357,8.23504076 28.8057143,7.84489981 C28.7584276,7.71498849 28.6744966,7.60156938 28.5640816,7.51837252 C28.123833,7.12396645 27.6532687,6.764769 27.1567347,6.44409775 C26.5853061,6.08165246 26.0334694,5.69635026 25.4653061,5.3306397 C25.1583673,5.13472333 24.8318367,4.96492914 24.515102,4.77880859 C23.9959184,4.47513821 23.48,4.16493729 22.957551,3.86453219 C22.5069388,3.6098409 22.0497959,3.36494544 21.5893878,3.1167847 L20.3355102,2.46373013 C20.077551,2.32985394 19.8261224,2.18291666 19.5681633,2.04904048 C19.3921762,1.93874308 19.3056119,1.72889239 19.3526531,1.52659682 C19.3755102,1.40578172 19.5877551,1.26864026 19.7346939,1.24904862 C19.9250389,1.25186644 20.1094007,1.31599164 20.2604082,1.43190391 C20.6914286,1.65394246 21.122449,1.88577683 21.5469388,2.12087648 C21.8734694,2.31026231 22.2261224,2.50944395 22.5657143,2.69882978 C23.0130612,2.95025579 23.4636735,3.18862071 23.9077551,3.44331199 C24.515102,3.79269618 25.1257143,4.14208038 25.72,4.51105621 C26.4155102,4.94207223 27.1044898,5.38288407 27.7836735,5.84002227 C28.353155,6.20424629 28.8780817,6.63382704 29.3477551,7.12000923 C29.6313566,7.44610048 29.7514834,7.88335767 29.6742857,8.30856855 C29.6636715,8.47403123 29.6429526,8.63869037 29.6122449,8.80162476 C29.5338776,9.12815204 29.4457143,9.45467933 29.357551,9.80406353 C29.3183673,9.96079662 29.2791837,10.1305908 29.2302041,10.2742628 C29.1485714,10.5289541 29.0604082,10.7836454 28.9722449,11.0383367 C28.8840816,11.293028 28.7991837,11.5020054 28.7077551,11.7305745 L28.3093878,12.7591355 C28.1983673,13.0464795 28.0971429,13.340354 27.9828571,13.627698 C27.8685714,13.9150421 27.7281633,14.2480999 27.6040816,14.5583008 C27.4506122,14.9370725 27.3036735,15.3191094 27.1469388,15.697881 C27.0195918,16.0015514 26.8759184,16.2986912 26.7485714,16.6023616 C26.6212245,16.906032 26.5297959,17.1705191 26.4220408,17.4545978 L26.0595918,18.3949964 C25.9387755,18.7215237 25.8114286,19.048051 25.6938776,19.3745783 C25.5763265,19.7011056 25.4816327,19.9688579 25.3902041,20.2725283 C25.3420996,20.4520528 25.3039462,20.6340968 25.2759184,20.8178289 L25.2987755,20.83089 Z" id="Path" fill="#FBC02D" fill-rule="nonzero"></path>
                                                            <path d="M33.8931023,2.69882978 C33.884946,4.18119203 32.6766631,5.37630546 31.1942857,5.36823143 C29.7119084,5.36007522 28.5167828,4.15180457 28.5248569,2.66944232 C28.5330132,1.18708007 29.7412961,-0.00803336704 31.2236735,4.06705279e-05 C32.7060508,0.00819687661 33.9011764,1.21646752 33.8931023,2.69882978 Z M29.4032653,2.66944232 C29.3926405,3.15620825 29.5797516,3.62649817 29.9218722,3.97292252 C30.2639928,4.31934688 30.7319098,4.51232505 31.2187755,4.50779094 C32.1566705,4.50044029 32.9375025,3.78585945 33.0277551,2.8522976 C33.108137,2.17766355 32.8057962,1.51447512 32.2438026,1.13268748 C31.6818089,0.750899838 30.9538741,0.714175573 30.3563087,1.03746353 C29.7587433,1.36075149 29.3911906,1.99014384 29.4032653,2.66944232 L29.4032653,2.66944232 Z" id="Shape" fill="#78909C" fill-rule="nonzero"></path>
                                                            <text id="HRMS" font-family="Roboto-Light, Roboto" font-size="11" font-weight="300" fill="#FFFFFF">
                                                                <tspan x="14.6010742" y="44.9983385">HRMS</tspan>
                                                            </text>
                                                        </g>
                                                    </g>
                                                </g>
                                            </g>
                                        </g>
                                    </g>
                                </g>
                            </g>
                        </g>
                    </g>
                </g>
            </g>
        </g>
    </g>
</svg>